<svg height="500" preserveAspectRatio="xMidYMid meet" viewBox="0 0 375 374.999991" width="500" xmlns="http://www.w3.org/2000/svg" xmlns:xlink="http://www.w3.org/1999/xlink" zoomAndPan="magnify"><clipPath id="a"><path d="m0 63h375v282.410156h-375zm0 0"/></clipPath><g clip-path="url(#a)"><path d="m328.765625 267.496094-19.695313 19.714844-27.082031-27.59375-27.277343 27.226562-19.695313-19.347656 27.613281-27.59375-27.613281-27.0625 19.527344-19.714844 27.28125 27.230469 27.28125-27.230469 19.726562 19.714844-27.3125 27.0625zm-46.777344-101.464844c-40.917969-.035156-74.15625 33.113281-74.15625 74.035156-.03125 40.894532 33.136719 74.070313 74.089844 74.105469 40.921875.035156 74.125-33.113281 74.15625-74.039063 0-.066406 0-.164062 0-.230468-.097656-40.824219-33.234375-73.871094-74.089844-73.871094zm-62.246093 144.816406c-9.148438-8.046875-16.667969-17.785156-22.121094-28.691406-16.933594-5.75-35.332032 3.292969-41.121094 20.214844-5.757812 16.886718 3.292969 35.304687 20.226562 41.054687 3.527344 1.199219 7.21875 1.796875 10.945313 1.730469 17.867187-.234375 32.203125-14.894531 32.003906-32.746094 0-.035156 0-.035156 0-.066406 0-.199219 0-.367188 0-.566406-.097656-.296875-.132812-.5625-.132812-.929688zm-32.070313-70.945312c-.097656-9.476563 1.230469-18.917969 3.960937-28.027344-31.707031-.730469-62.347656 11.171875-85.203124 33.082031l28.8125 26.695313c19.460937-13.332032 36.128906-19.714844 52.996093-19.714844-.433593-3.988281-.632812-8.011719-.566406-12.035156zm20.992187-59.410156c11.480469-14.09375 26.75-24.566407 44.050782-30.21875-69.566406-24.46875-152.242188-7.179688-197.21875 43.117187l28.242187 26.296875c30.574219-27.09375 65.308594-40.722656 104.566407-40.589844 6.785156.03125 13.605468.496094 20.359374 1.394532zm137.46875-14.0625 28.910157-26.597657c-111.449219-110.171875-288.90625-92.421875-374.742188 0l27.8125 25.898438c46.511719-40.757813 99.042969-61.800781 159.957031-61.769531 60.917969.035156 112.847657 22.175781 158.0625 62.46875" fill="#040606"/></g></svg>